<mxfile host="app.diagrams.net" agent="Mozilla/5.0 (Windows NT 10.0; Win64; x64) AppleWebKit/537.36 (KHTML, like Gecko) Chrome/139.0.0.0 Safari/537.36 Edg/139.0.0.0" version="28.1.1">
  <diagram name="第 1 页" id="Th382Obgh3NiBqKPN3cL">
    <mxGraphModel dx="1410" dy="880" grid="1" gridSize="10" guides="1" tooltips="1" connect="1" arrows="1" fold="1" page="1" pageScale="1" pageWidth="827" pageHeight="1169" math="1" shadow="0">
      <root>
        <mxCell id="0" />
        <mxCell id="1" parent="0" />
        <mxCell id="MlWx3oXdz5i_NhMliBFA-1" value="摩擦力补偿" style="text;html=1;align=center;verticalAlign=middle;whiteSpace=wrap;rounded=0;fontSize=26;fontFamily=Comic Sans MS;fontColor=#3333FF;fontStyle=1" vertex="1" parent="1">
          <mxGeometry x="260" y="20" width="280" height="60" as="geometry" />
        </mxCell>
        <mxCell id="MlWx3oXdz5i_NhMliBFA-36" style="edgeStyle=orthogonalEdgeStyle;rounded=0;orthogonalLoop=1;jettySize=auto;html=1;exitX=0;exitY=0.5;exitDx=0;exitDy=0;entryX=0;entryY=0.5;entryDx=0;entryDy=0;" edge="1" parent="1" source="MlWx3oXdz5i_NhMliBFA-4" target="MlWx3oXdz5i_NhMliBFA-33">
          <mxGeometry relative="1" as="geometry">
            <Array as="points">
              <mxPoint x="150" y="390" />
              <mxPoint x="150" y="220" />
            </Array>
          </mxGeometry>
        </mxCell>
        <mxCell id="MlWx3oXdz5i_NhMliBFA-4" value="\[\frac{1}{s}\]" style="rounded=0;whiteSpace=wrap;html=1;fontSize=18;" vertex="1" parent="1">
          <mxGeometry x="260" y="360" width="50" height="60" as="geometry" />
        </mxCell>
        <mxCell id="MlWx3oXdz5i_NhMliBFA-37" style="edgeStyle=orthogonalEdgeStyle;rounded=0;orthogonalLoop=1;jettySize=auto;html=1;exitX=0;exitY=0.5;exitDx=0;exitDy=0;entryX=0.5;entryY=1;entryDx=0;entryDy=0;" edge="1" parent="1" source="MlWx3oXdz5i_NhMliBFA-5" target="MlWx3oXdz5i_NhMliBFA-33">
          <mxGeometry relative="1" as="geometry">
            <mxPoint x="180" y="260" as="targetPoint" />
          </mxGeometry>
        </mxCell>
        <mxCell id="MlWx3oXdz5i_NhMliBFA-5" value="\[{2\omega _n}\]" style="rounded=0;whiteSpace=wrap;html=1;fontSize=18;" vertex="1" parent="1">
          <mxGeometry x="350" y="270" width="50" height="60" as="geometry" />
        </mxCell>
        <mxCell id="MlWx3oXdz5i_NhMliBFA-30" style="edgeStyle=orthogonalEdgeStyle;rounded=0;orthogonalLoop=1;jettySize=auto;html=1;exitX=0;exitY=0.5;exitDx=0;exitDy=0;entryX=1;entryY=0.5;entryDx=0;entryDy=0;" edge="1" parent="1" source="MlWx3oXdz5i_NhMliBFA-6" target="MlWx3oXdz5i_NhMliBFA-4">
          <mxGeometry relative="1" as="geometry" />
        </mxCell>
        <mxCell id="MlWx3oXdz5i_NhMliBFA-6" value="\[{\omega _n}^2\]" style="rounded=0;whiteSpace=wrap;html=1;fontSize=18;" vertex="1" parent="1">
          <mxGeometry x="355" y="360" width="50" height="60" as="geometry" />
        </mxCell>
        <mxCell id="MlWx3oXdz5i_NhMliBFA-7" value="" style="group" vertex="1" connectable="0" parent="1">
          <mxGeometry x="285" y="210" width="20" height="20" as="geometry" />
        </mxCell>
        <mxCell id="MlWx3oXdz5i_NhMliBFA-8" value="" style="ellipse;whiteSpace=wrap;html=1;aspect=fixed;" vertex="1" parent="MlWx3oXdz5i_NhMliBFA-7">
          <mxGeometry width="20" height="20" as="geometry" />
        </mxCell>
        <mxCell id="MlWx3oXdz5i_NhMliBFA-9" value="" style="endArrow=none;html=1;rounded=0;entryX=1;entryY=1;entryDx=0;entryDy=0;exitX=0;exitY=0;exitDx=0;exitDy=0;" edge="1" parent="MlWx3oXdz5i_NhMliBFA-7" source="MlWx3oXdz5i_NhMliBFA-8" target="MlWx3oXdz5i_NhMliBFA-8">
          <mxGeometry width="50" height="50" relative="1" as="geometry">
            <mxPoint x="-19.99000000000001" as="sourcePoint" />
            <mxPoint x="30.00999999999999" y="-50" as="targetPoint" />
          </mxGeometry>
        </mxCell>
        <mxCell id="MlWx3oXdz5i_NhMliBFA-10" value="" style="endArrow=none;html=1;rounded=0;entryX=0;entryY=1;entryDx=0;entryDy=0;exitX=1;exitY=0;exitDx=0;exitDy=0;" edge="1" parent="MlWx3oXdz5i_NhMliBFA-7" source="MlWx3oXdz5i_NhMliBFA-8" target="MlWx3oXdz5i_NhMliBFA-8">
          <mxGeometry width="50" height="50" relative="1" as="geometry">
            <mxPoint x="-10" y="-10" as="sourcePoint" />
            <mxPoint x="29.99000000000001" y="-10" as="targetPoint" />
          </mxGeometry>
        </mxCell>
        <mxCell id="MlWx3oXdz5i_NhMliBFA-19" style="edgeStyle=orthogonalEdgeStyle;rounded=0;orthogonalLoop=1;jettySize=auto;html=1;exitX=1;exitY=0.5;exitDx=0;exitDy=0;entryX=0.5;entryY=0;entryDx=0;entryDy=0;" edge="1" parent="1" source="MlWx3oXdz5i_NhMliBFA-13" target="MlWx3oXdz5i_NhMliBFA-8">
          <mxGeometry relative="1" as="geometry" />
        </mxCell>
        <mxCell id="MlWx3oXdz5i_NhMliBFA-13" value="\[\frac{1}{J}\]" style="rounded=0;whiteSpace=wrap;html=1;fontSize=18;" vertex="1" parent="1">
          <mxGeometry x="170" y="120" width="50" height="60" as="geometry" />
        </mxCell>
        <mxCell id="MlWx3oXdz5i_NhMliBFA-17" style="edgeStyle=orthogonalEdgeStyle;rounded=0;orthogonalLoop=1;jettySize=auto;html=1;exitX=0;exitY=1;exitDx=0;exitDy=0;entryX=0;entryY=0.5;entryDx=0;entryDy=0;" edge="1" parent="1" source="MlWx3oXdz5i_NhMliBFA-16" target="MlWx3oXdz5i_NhMliBFA-13">
          <mxGeometry relative="1" as="geometry">
            <Array as="points">
              <mxPoint x="60" y="150" />
            </Array>
          </mxGeometry>
        </mxCell>
        <mxCell id="MlWx3oXdz5i_NhMliBFA-16" value="\[{T_e}\]" style="rounded=0;whiteSpace=wrap;html=1;fontSize=18;strokeColor=none;fillColor=none;" vertex="1" parent="1">
          <mxGeometry x="60" y="120" width="50" height="30" as="geometry" />
        </mxCell>
        <mxCell id="MlWx3oXdz5i_NhMliBFA-27" style="edgeStyle=orthogonalEdgeStyle;rounded=0;orthogonalLoop=1;jettySize=auto;html=1;exitX=1;exitY=0.5;exitDx=0;exitDy=0;entryX=0.5;entryY=0;entryDx=0;entryDy=0;" edge="1" parent="1" source="MlWx3oXdz5i_NhMliBFA-18" target="MlWx3oXdz5i_NhMliBFA-24">
          <mxGeometry relative="1" as="geometry" />
        </mxCell>
        <mxCell id="MlWx3oXdz5i_NhMliBFA-18" value="\[\frac{1}{s}\]" style="rounded=0;whiteSpace=wrap;html=1;fontSize=18;" vertex="1" parent="1">
          <mxGeometry x="384" y="190" width="50" height="60" as="geometry" />
        </mxCell>
        <mxCell id="MlWx3oXdz5i_NhMliBFA-28" style="edgeStyle=orthogonalEdgeStyle;rounded=0;orthogonalLoop=1;jettySize=auto;html=1;exitX=1;exitY=1;exitDx=0;exitDy=0;entryX=1;entryY=0.5;entryDx=0;entryDy=0;" edge="1" parent="1" source="MlWx3oXdz5i_NhMliBFA-21" target="MlWx3oXdz5i_NhMliBFA-24">
          <mxGeometry relative="1" as="geometry">
            <Array as="points">
              <mxPoint x="550" y="300" />
              <mxPoint x="550" y="300" />
            </Array>
          </mxGeometry>
        </mxCell>
        <mxCell id="MlWx3oXdz5i_NhMliBFA-21" value="\[\omega \]" style="rounded=0;whiteSpace=wrap;html=1;fontSize=18;strokeColor=none;fillColor=none;" vertex="1" parent="1">
          <mxGeometry x="540" y="270" width="50" height="30" as="geometry" />
        </mxCell>
        <mxCell id="MlWx3oXdz5i_NhMliBFA-23" value="" style="group" vertex="1" connectable="0" parent="1">
          <mxGeometry x="490" y="290" width="20" height="20" as="geometry" />
        </mxCell>
        <mxCell id="MlWx3oXdz5i_NhMliBFA-24" value="" style="ellipse;whiteSpace=wrap;html=1;aspect=fixed;" vertex="1" parent="MlWx3oXdz5i_NhMliBFA-23">
          <mxGeometry width="20" height="20" as="geometry" />
        </mxCell>
        <mxCell id="MlWx3oXdz5i_NhMliBFA-25" value="" style="endArrow=none;html=1;rounded=0;entryX=1;entryY=1;entryDx=0;entryDy=0;exitX=0;exitY=0;exitDx=0;exitDy=0;" edge="1" parent="MlWx3oXdz5i_NhMliBFA-23" source="MlWx3oXdz5i_NhMliBFA-24" target="MlWx3oXdz5i_NhMliBFA-24">
          <mxGeometry width="50" height="50" relative="1" as="geometry">
            <mxPoint x="-19.99000000000001" as="sourcePoint" />
            <mxPoint x="30.00999999999999" y="-50" as="targetPoint" />
          </mxGeometry>
        </mxCell>
        <mxCell id="MlWx3oXdz5i_NhMliBFA-26" value="" style="endArrow=none;html=1;rounded=0;entryX=0;entryY=1;entryDx=0;entryDy=0;exitX=1;exitY=0;exitDx=0;exitDy=0;" edge="1" parent="MlWx3oXdz5i_NhMliBFA-23" source="MlWx3oXdz5i_NhMliBFA-24" target="MlWx3oXdz5i_NhMliBFA-24">
          <mxGeometry width="50" height="50" relative="1" as="geometry">
            <mxPoint x="-10" y="-10" as="sourcePoint" />
            <mxPoint x="29.99000000000001" y="-10" as="targetPoint" />
          </mxGeometry>
        </mxCell>
        <mxCell id="MlWx3oXdz5i_NhMliBFA-29" style="edgeStyle=orthogonalEdgeStyle;rounded=0;orthogonalLoop=1;jettySize=auto;html=1;exitX=0;exitY=0.5;exitDx=0;exitDy=0;entryX=1;entryY=0.5;entryDx=0;entryDy=0;" edge="1" parent="1" source="MlWx3oXdz5i_NhMliBFA-24" target="MlWx3oXdz5i_NhMliBFA-6">
          <mxGeometry relative="1" as="geometry">
            <Array as="points">
              <mxPoint x="450" y="300" />
              <mxPoint x="450" y="390" />
            </Array>
          </mxGeometry>
        </mxCell>
        <mxCell id="MlWx3oXdz5i_NhMliBFA-32" value="" style="group" vertex="1" connectable="0" parent="1">
          <mxGeometry x="210" y="210" width="20" height="20" as="geometry" />
        </mxCell>
        <mxCell id="MlWx3oXdz5i_NhMliBFA-33" value="" style="ellipse;whiteSpace=wrap;html=1;aspect=fixed;" vertex="1" parent="MlWx3oXdz5i_NhMliBFA-32">
          <mxGeometry width="20" height="20" as="geometry" />
        </mxCell>
        <mxCell id="MlWx3oXdz5i_NhMliBFA-34" value="" style="endArrow=none;html=1;rounded=0;entryX=1;entryY=1;entryDx=0;entryDy=0;exitX=0;exitY=0;exitDx=0;exitDy=0;" edge="1" parent="MlWx3oXdz5i_NhMliBFA-32" source="MlWx3oXdz5i_NhMliBFA-33" target="MlWx3oXdz5i_NhMliBFA-33">
          <mxGeometry width="50" height="50" relative="1" as="geometry">
            <mxPoint x="-19.99000000000001" as="sourcePoint" />
            <mxPoint x="30.00999999999999" y="-50" as="targetPoint" />
          </mxGeometry>
        </mxCell>
        <mxCell id="MlWx3oXdz5i_NhMliBFA-35" value="" style="endArrow=none;html=1;rounded=0;entryX=0;entryY=1;entryDx=0;entryDy=0;exitX=1;exitY=0;exitDx=0;exitDy=0;" edge="1" parent="MlWx3oXdz5i_NhMliBFA-32" source="MlWx3oXdz5i_NhMliBFA-33" target="MlWx3oXdz5i_NhMliBFA-33">
          <mxGeometry width="50" height="50" relative="1" as="geometry">
            <mxPoint x="-10" y="-10" as="sourcePoint" />
            <mxPoint x="29.99000000000001" y="-10" as="targetPoint" />
          </mxGeometry>
        </mxCell>
        <mxCell id="MlWx3oXdz5i_NhMliBFA-41" style="edgeStyle=orthogonalEdgeStyle;rounded=0;orthogonalLoop=1;jettySize=auto;html=1;entryX=1;entryY=0.5;entryDx=0;entryDy=0;" edge="1" parent="1" source="MlWx3oXdz5i_NhMliBFA-39" target="MlWx3oXdz5i_NhMliBFA-5">
          <mxGeometry relative="1" as="geometry">
            <Array as="points">
              <mxPoint x="420" y="300" />
              <mxPoint x="420" y="300" />
            </Array>
          </mxGeometry>
        </mxCell>
        <mxCell id="MlWx3oXdz5i_NhMliBFA-39" value="" style="shape=waypoint;sketch=0;fillStyle=solid;size=6;pointerEvents=1;points=[];fillColor=none;resizable=0;rotatable=0;perimeter=centerPerimeter;snapToPoint=1;" vertex="1" parent="1">
          <mxGeometry x="440" y="290" width="20" height="20" as="geometry" />
        </mxCell>
        <mxCell id="MlWx3oXdz5i_NhMliBFA-42" style="edgeStyle=orthogonalEdgeStyle;rounded=0;orthogonalLoop=1;jettySize=auto;html=1;exitX=1;exitY=0.5;exitDx=0;exitDy=0;entryX=0;entryY=0.5;entryDx=0;entryDy=0;" edge="1" parent="1" source="MlWx3oXdz5i_NhMliBFA-33" target="MlWx3oXdz5i_NhMliBFA-8">
          <mxGeometry relative="1" as="geometry" />
        </mxCell>
        <mxCell id="MlWx3oXdz5i_NhMliBFA-43" style="edgeStyle=orthogonalEdgeStyle;rounded=0;orthogonalLoop=1;jettySize=auto;html=1;exitX=1;exitY=0.5;exitDx=0;exitDy=0;entryX=0;entryY=0.5;entryDx=0;entryDy=0;" edge="1" parent="1" source="MlWx3oXdz5i_NhMliBFA-8" target="MlWx3oXdz5i_NhMliBFA-18">
          <mxGeometry relative="1" as="geometry" />
        </mxCell>
        <mxCell id="MlWx3oXdz5i_NhMliBFA-44" value="+" style="text;html=1;align=center;verticalAlign=middle;whiteSpace=wrap;rounded=0;fontSize=20;" vertex="1" parent="1">
          <mxGeometry x="272.87" y="180" width="24.25" height="20" as="geometry" />
        </mxCell>
        <mxCell id="MlWx3oXdz5i_NhMliBFA-45" value="+" style="text;html=1;align=center;verticalAlign=middle;whiteSpace=wrap;rounded=0;fontSize=20;" vertex="1" parent="1">
          <mxGeometry x="250" y="200" width="24.25" height="20" as="geometry" />
        </mxCell>
        <mxCell id="MlWx3oXdz5i_NhMliBFA-46" value="+" style="text;html=1;align=center;verticalAlign=middle;whiteSpace=wrap;rounded=0;fontSize=20;" vertex="1" parent="1">
          <mxGeometry x="185.75" y="200" width="24.25" height="20" as="geometry" />
        </mxCell>
        <mxCell id="MlWx3oXdz5i_NhMliBFA-47" value="+" style="text;html=1;align=center;verticalAlign=middle;whiteSpace=wrap;rounded=0;fontSize=20;" vertex="1" parent="1">
          <mxGeometry x="195.75" y="240" width="24.25" height="20" as="geometry" />
        </mxCell>
        <mxCell id="MlWx3oXdz5i_NhMliBFA-48" value="-" style="text;html=1;align=center;verticalAlign=middle;whiteSpace=wrap;rounded=0;fontSize=20;" vertex="1" parent="1">
          <mxGeometry x="480" y="260" width="24.25" height="20" as="geometry" />
        </mxCell>
        <mxCell id="MlWx3oXdz5i_NhMliBFA-49" value="+" style="text;html=1;align=center;verticalAlign=middle;whiteSpace=wrap;rounded=0;fontSize=20;" vertex="1" parent="1">
          <mxGeometry x="515.75" y="280" width="24.25" height="20" as="geometry" />
        </mxCell>
        <mxCell id="MlWx3oXdz5i_NhMliBFA-50" value="\[{\hat \omega }\]" style="rounded=0;whiteSpace=wrap;html=1;fontSize=18;strokeColor=none;fillColor=none;" vertex="1" parent="1">
          <mxGeometry x="490" y="230" width="50" height="30" as="geometry" />
        </mxCell>
        <mxCell id="MlWx3oXdz5i_NhMliBFA-51" value="\[ - {{\hat T}_L}\]" style="rounded=0;whiteSpace=wrap;html=1;fontSize=18;strokeColor=none;fillColor=none;" vertex="1" parent="1">
          <mxGeometry x="170" y="360" width="50" height="30" as="geometry" />
        </mxCell>
      </root>
    </mxGraphModel>
  </diagram>
</mxfile>
